<?xml version="1.0" encoding="UTF-8" standalone="no"?>
<!-- Created with Inkscape (http://www.inkscape.org/) -->

<svg
   xmlns:dc="http://purl.org/dc/elements/1.1/"
   xmlns:cc="http://creativecommons.org/ns#"
   xmlns:rdf="http://www.w3.org/1999/02/22-rdf-syntax-ns#"
   xmlns:svg="http://www.w3.org/2000/svg"
   xmlns="http://www.w3.org/2000/svg"
   version="1.1"
   width="230.99998"
   height="230.99998"
   id="svg2">
  <defs
     id="defs4">
    <clipPath
       id="clipPath2999">
      <path
         d="M 0,792 612,792 612,0 0,0 0,792 z"
         id="path3001" />
    </clipPath>
  </defs>
  <metadata
     id="metadata7">
    <rdf:RDF>
      <cc:Work
         rdf:about="">
        <dc:format>image/svg+xml</dc:format>
        <dc:type
           rdf:resource="http://purl.org/dc/dcmitype/StillImage" />
        <dc:title></dc:title>
      </cc:Work>
    </rdf:RDF>
  </metadata>
  <g
     transform="translate(-530.45301,-396.62503)"
     id="layer1">
    <g
       transform="matrix(1.0037704,0,0,-1.0037595,343.47478,914.2353)"
       id="g2993">
      <g
         id="g2995">
        <g
           clip-path="url(#clipPath2999)"
           id="g2997">
          <g
             transform="translate(416.4082,400.6079)"
             id="g3003">
            <path
               d="m 0,0 c 0,-63.553 -51.516,-115.071 -115.066,-115.071 -63.547,0 -115.066,51.518 -115.066,115.071 0,63.547 51.519,115.063 115.066,115.063 C -51.516,115.063 0,63.547 0,0"
               id="path3005"
               style="fill:#be1e2d;fill-opacity:1;fill-rule:nonzero;stroke:none" />
          </g>
          <g
             transform="translate(358.8691,500.2446)"
             id="g3007">
            <path
               d="m 0,0 c -16.926,9.795 -36.563,15.427 -57.527,15.427 l 0,-115.064 L 0,0 z"
               id="path3009"
               style="fill:#faaf40;fill-opacity:1;fill-rule:nonzero;stroke:none" />
          </g>
          <g
             transform="translate(243.8184,500.2446)"
             id="g3011">
            <path
               d="M 0,0 C -17.46,-10.102 -32.011,-24.652 -42.113,-42.113 L 57.524,-99.637 0,0 z"
               id="path3013"
               style="fill:#faaf40;fill-opacity:1;fill-rule:nonzero;stroke:none" />
          </g>
          <g
             transform="translate(416.4082,400.6079)"
             id="g3015">
            <path
               d="M 0,0 C 0,20.961 -5.635,40.597 -15.426,57.524 L -115.066,0 0,0 z"
               id="path3017"
               style="fill:#faaf40;fill-opacity:1;fill-rule:nonzero;stroke:none" />
          </g>
          <g
             transform="translate(243.8184,300.9668)"
             id="g3019">
            <path
               d="m 0,0 c 16.927,-9.793 36.561,-15.43 57.524,-15.43 l 0,115.071 L 0,0 z"
               id="path3021"
               style="fill:#faaf40;fill-opacity:1;fill-rule:nonzero;stroke:none" />
          </g>
          <g
             transform="translate(400.9824,343.0801)"
             id="g3023">
            <path
               d="m 0,0 -99.64,57.528 57.527,-99.641 C -24.652,-32.01 -10.102,-17.461 0,0"
               id="path3025"
               style="fill:#faaf40;fill-opacity:1;fill-rule:nonzero;stroke:none" />
          </g>
          <g
             transform="translate(186.2759,400.6079)"
             id="g3027">
            <path
               d="M 0,0 C 0,-20.963 5.635,-40.602 15.43,-57.528 L 115.066,0 0,0 z"
               id="path3029"
               style="fill:#faaf40;fill-opacity:1;fill-rule:nonzero;stroke:none" />
          </g>
          <g
             transform="translate(359.4453,400.6079)"
             id="g3031">
            <path
               d="m 0,0 c 0,-32.088 -26.016,-58.1 -58.103,-58.1 -32.085,0 -58.097,26.012 -58.097,58.1 0,32.085 26.012,58.097 58.097,58.097 C -26.016,58.097 0,32.085 0,0"
               id="path3033"
               style="fill:#b15c12;fill-opacity:1;fill-rule:nonzero;stroke:none" />
          </g>
          <g
             transform="translate(348.6582,400.6079)"
             id="g3035">
            <path
               d="m 0,0 c 0,-26.131 -21.182,-47.315 -47.316,-47.315 -26.128,0 -47.312,21.184 -47.312,47.315 0,26.131 21.184,47.313 47.312,47.313 C -21.182,47.313 0,26.131 0,0"
               id="path3037"
               style="fill:#7c3a00;fill-opacity:1;fill-rule:nonzero;stroke:none" />
          </g>
          <path
             d="m 306.027,365.859 -9.362,0 0,69.499 9.362,0 0,-69.499 z"
             id="path3039"
             style="fill:#c26d16;fill-opacity:1;fill-rule:nonzero;stroke:none" />
          <g
             transform="translate(312.1484,441.1182)"
             id="g3041">
            <path
               d="m 0,0 c 0,-5.965 -4.836,-10.805 -10.806,-10.805 -5.963,0 -10.802,4.84 -10.802,10.805 0,5.967 4.839,10.804 10.802,10.804 C -4.836,10.804 0,5.967 0,0"
               id="path3043"
               style="fill:#f4901d;fill-opacity:1;fill-rule:nonzero;stroke:none" />
          </g>
          <g
             transform="translate(305.7231,443.749)"
             id="g3045">
            <path
               d="m 0,0 c 0,-3.552 -2.875,-6.425 -6.42,-6.425 -3.548,0 -6.426,2.873 -6.426,6.425 0,3.545 2.878,6.42 6.426,6.42 C -2.875,6.42 0,3.545 0,0"
               id="path3047"
               style="fill:#f6a446;fill-opacity:1;fill-rule:nonzero;stroke:none" />
          </g>
          <g
             transform="translate(301.6348,445.791)"
             id="g3049">
            <path
               d="m 0,0 c 0,-2.096 -1.696,-3.798 -3.795,-3.798 -2.097,0 -3.793,1.702 -3.793,3.798 0,2.096 1.696,3.793 3.793,3.793 C -1.696,3.793 0,2.096 0,0"
               id="path3051"
               style="fill:#f9c181;fill-opacity:1;fill-rule:nonzero;stroke:none" />
          </g>
          <g
             transform="translate(299.0083,447.6875)"
             id="g3053">
            <path
               d="m 0,0 c 0,-0.56 -0.459,-1.02 -1.02,-1.02 -0.563,0 -1.022,0.46 -1.022,1.02 0,0.566 0.459,1.025 1.022,1.025 C -0.459,1.025 0,0.566 0,0"
               id="path3055"
               style="fill:#ffffff;fill-opacity:1;fill-rule:nonzero;stroke:none" />
          </g>
          <g
             transform="translate(296.6738,443.457)"
             id="g3057">
            <path
               d="m 0,0 c 0,-0.967 -0.785,-1.75 -1.754,-1.75 -0.966,0 -1.753,0.783 -1.753,1.75 0,0.966 0.787,1.75 1.753,1.75 C -0.785,1.75 0,0.966 0,0"
               id="path3059"
               style="fill:#ffffff;fill-opacity:1;fill-rule:nonzero;stroke:none" />
          </g>
          <g
             transform="translate(312.1484,360.0957)"
             id="g3061">
            <path
               d="m 0,0 c 0,-5.965 -4.836,-10.803 -10.806,-10.803 -5.963,0 -10.802,4.838 -10.802,10.803 0,5.967 4.839,10.801 10.802,10.801 C -4.836,10.801 0,5.967 0,0"
               id="path3063"
               style="fill:#f4901d;fill-opacity:1;fill-rule:nonzero;stroke:none" />
          </g>
          <g
             transform="translate(305.7231,362.7227)"
             id="g3065">
            <path
               d="m 0,0 c 0,-3.549 -2.875,-6.426 -6.42,-6.426 -3.548,0 -6.426,2.877 -6.426,6.426 0,3.549 2.878,6.422 6.426,6.422 C -2.875,6.422 0,3.549 0,0"
               id="path3067"
               style="fill:#f6a446;fill-opacity:1;fill-rule:nonzero;stroke:none" />
          </g>
          <g
             transform="translate(301.6348,364.7656)"
             id="g3069">
            <path
               d="m 0,0 c 0,-2.096 -1.696,-3.795 -3.795,-3.795 -2.097,0 -3.793,1.699 -3.793,3.795 0,2.096 1.696,3.795 3.793,3.795 C -1.696,3.795 0,2.096 0,0"
               id="path3071"
               style="fill:#f9c181;fill-opacity:1;fill-rule:nonzero;stroke:none" />
          </g>
          <g
             transform="translate(299.0083,366.666)"
             id="g3073">
            <path
               d="m 0,0 c 0,-0.564 -0.459,-1.021 -1.02,-1.021 -0.563,0 -1.022,0.457 -1.022,1.021 0,0.563 0.459,1.018 1.022,1.018 C -0.459,1.018 0,0.563 0,0"
               id="path3075"
               style="fill:#ffffff;fill-opacity:1;fill-rule:nonzero;stroke:none" />
          </g>
          <g
             transform="translate(296.6738,362.4336)"
             id="g3077">
            <path
               d="m 0,0 c 0,-0.967 -0.785,-1.754 -1.754,-1.754 -0.966,0 -1.753,0.787 -1.753,1.754 0,0.963 0.787,1.75 1.753,1.75 C -0.785,1.75 0,0.963 0,0"
               id="path3079"
               style="fill:#ffffff;fill-opacity:1;fill-rule:nonzero;stroke:none" />
          </g>
          <path
             d="m 336.094,405.289 -69.499,0 0,-9.362 69.499,0 0,9.362 z"
             id="path3081"
             style="fill:#c26d16;fill-opacity:1;fill-rule:nonzero;stroke:none" />
          <g
             transform="translate(260.8311,389.8047)"
             id="g3083">
            <path
               d="m 0,0 c 5.966,0 10.802,4.834 10.802,10.803 0,5.963 -4.836,10.802 -10.802,10.802 -5.966,0 -10.802,-4.839 -10.802,-10.802 C -10.802,4.834 -5.966,0 0,0"
               id="path3085"
               style="fill:#f4901d;fill-opacity:1;fill-rule:nonzero;stroke:none" />
          </g>
          <g
             transform="translate(258.2046,396.2271)"
             id="g3087">
            <path
               d="m 0,0 c 3.548,0 6.425,2.875 6.425,6.424 0,3.545 -2.877,6.422 -6.425,6.422 -3.548,0 -6.426,-2.877 -6.426,-6.422 C -6.426,2.875 -3.548,0 0,0"
               id="path3089"
               style="fill:#f6a446;fill-opacity:1;fill-rule:nonzero;stroke:none" />
          </g>
          <g
             transform="translate(256.1616,400.312)"
             id="g3091">
            <path
               d="M 0,0 C 2.094,0 3.796,1.703 3.796,3.802 3.796,5.896 2.094,7.594 0,7.594 -2.099,7.594 -3.795,5.896 -3.795,3.802 -3.795,1.703 -2.099,0 0,0"
               id="path3093"
               style="fill:#f9c181;fill-opacity:1;fill-rule:nonzero;stroke:none" />
          </g>
          <g
             transform="translate(254.2627,402.9429)"
             id="g3095">
            <path
               d="M 0,0 C 0.564,0 1.02,0.455 1.02,1.019 1.02,1.585 0.564,2.042 0,2.042 -0.563,2.042 -1.023,1.585 -1.023,1.019 -1.023,0.455 -0.563,0 0,0"
               id="path3097"
               style="fill:#ffffff;fill-opacity:1;fill-rule:nonzero;stroke:none" />
          </g>
          <g
             transform="translate(258.4937,405.2769)"
             id="g3099">
            <path
               d="M 0,0 C 0.966,0 1.75,0.784 1.75,1.753 1.75,2.719 0.966,3.504 0,3.504 -0.966,3.504 -1.748,2.719 -1.748,1.753 -1.748,0.784 -0.966,0 0,0"
               id="path3101"
               style="fill:#ffffff;fill-opacity:1;fill-rule:nonzero;stroke:none" />
          </g>
          <g
             transform="translate(341.8535,389.8047)"
             id="g3103">
            <path
               d="m 0,0 c 5.967,0 10.805,4.834 10.805,10.803 0,5.963 -4.838,10.802 -10.805,10.802 -5.967,0 -10.801,-4.839 -10.801,-10.802 C -10.801,4.834 -5.967,0 0,0"
               id="path3105"
               style="fill:#f4901d;fill-opacity:1;fill-rule:nonzero;stroke:none" />
          </g>
          <g
             transform="translate(339.2266,396.2271)"
             id="g3107">
            <path
               d="m 0,0 c 3.551,0 6.426,2.875 6.426,6.424 0,3.545 -2.875,6.422 -6.426,6.422 -3.549,0 -6.422,-2.877 -6.422,-6.422 C -6.422,2.875 -3.549,0 0,0"
               id="path3109"
               style="fill:#f6a446;fill-opacity:1;fill-rule:nonzero;stroke:none" />
          </g>
          <g
             transform="translate(337.1836,400.312)"
             id="g3111">
            <path
               d="M 0,0 C 2.094,0 3.797,1.703 3.797,3.802 3.797,5.896 2.094,7.594 0,7.594 -2.098,7.594 -3.797,5.896 -3.797,3.802 -3.797,1.703 -2.098,0 0,0"
               id="path3113"
               style="fill:#f9c181;fill-opacity:1;fill-rule:nonzero;stroke:none" />
          </g>
          <g
             transform="translate(335.2832,402.9429)"
             id="g3115">
            <path
               d="M 0,0 C 0.566,0 1.021,0.455 1.021,1.019 1.021,1.585 0.566,2.042 0,2.042 -0.561,2.042 -1.021,1.585 -1.021,1.019 -1.021,0.455 -0.561,0 0,0"
               id="path3117"
               style="fill:#ffffff;fill-opacity:1;fill-rule:nonzero;stroke:none" />
          </g>
          <g
             transform="translate(339.5195,405.2769)"
             id="g3119">
            <path
               d="M 0,0 C 0.965,0 1.75,0.784 1.75,1.753 1.75,2.719 0.965,3.504 0,3.504 -0.967,3.504 -1.75,2.719 -1.75,1.753 -1.75,0.784 -0.967,0 0,0"
               id="path3121"
               style="fill:#ffffff;fill-opacity:1;fill-rule:nonzero;stroke:none" />
          </g>
          <g
             transform="translate(316.0039,400.6079)"
             id="g3123">
            <path
               d="m 0,0 c 0,-8.098 -6.563,-14.661 -14.662,-14.661 -8.097,0 -14.66,6.563 -14.66,14.661 0,8.098 6.563,14.657 14.66,14.657 C -6.563,14.657 0,8.098 0,0"
               id="path3125"
               style="fill:#b15c12;fill-opacity:1;fill-rule:nonzero;stroke:none" />
          </g>
          <g
             transform="translate(307.2871,404.1704)"
             id="g3127">
            <path
               d="m 0,0 c 0,-4.813 -3.902,-8.715 -8.717,-8.715 -4.813,0 -8.716,3.902 -8.716,8.715 0,4.815 3.903,8.721 8.716,8.721 C -3.902,8.721 0,4.815 0,0"
               id="path3129"
               style="fill:#bf793c;fill-opacity:1;fill-rule:nonzero;stroke:none" />
          </g>
          <g
             transform="translate(301.7451,406.9468)"
             id="g3131">
            <path
               d="m 0,0 c 0,-2.845 -2.311,-5.152 -5.155,-5.152 -2.848,0 -5.153,2.307 -5.153,5.152 0,2.844 2.305,5.151 5.153,5.151 C -2.311,5.151 0,2.844 0,0"
               id="path3133"
               style="fill:#d4a47a;fill-opacity:1;fill-rule:nonzero;stroke:none" />
          </g>
          <g
             transform="translate(298.1733,409.5249)"
             id="g3135">
            <path
               d="m 0,0 c 0,-0.769 -0.621,-1.392 -1.384,-1.392 -0.766,0 -1.389,0.623 -1.389,1.392 0,0.761 0.623,1.384 1.389,1.384 C -0.621,1.384 0,0.761 0,0"
               id="path3137"
               style="fill:#ffffff;fill-opacity:1;fill-rule:nonzero;stroke:none" />
          </g>
          <g
             transform="translate(295.0068,403.7769)"
             id="g3139">
            <path
               d="m 0,0 c 0,-1.312 -1.065,-2.38 -2.38,-2.38 -1.311,0 -2.376,1.068 -2.376,2.38 0,1.313 1.065,2.376 2.376,2.376 C -1.065,2.376 0,1.313 0,0"
               id="path3141"
               style="fill:#ffffff;fill-opacity:1;fill-rule:nonzero;stroke:none" />
          </g>
          <g
             transform="translate(286.7412,491.2305)"
             id="g3143">
            <path
               d="M 0,0 C 0.24,0.06 0.57,0 0.84,0 1.26,0 1.95,0 1.98,-0.24 2.01,-0.42 1.35,-0.93 1.08,-1.11 L 0.09,-1.74 c -0.42,-0.27 -0.9,-0.69 -1.38,-1.02 -0.15,-0.09 -0.39,-0.21 -0.42,-0.39 -0.03,-0.21 0.09,-0.45 0.12,-0.69 0.09,-0.75 0.24,-1.499 0.39,-2.16 0.12,-0.51 0.15,-0.87 0.24,-1.439 0.03,-0.241 0.33,-1.32 -0.09,-1.38 -0.15,-0.031 -0.3,0.179 -0.45,0.33 -0.36,0.36 -0.87,0.78 -1.2,1.11 -0.3,0.27 -0.54,0.54 -0.78,0.81 -0.24,0.239 -0.51,0.569 -0.84,0.749 -0.15,0.091 -0.51,0.24 -0.72,0.211 -0.18,0 -0.36,-0.33 -0.48,-0.511 l -2.64,-3.299 c -0.15,-0.181 -0.299,-0.48 -0.48,-0.51 -0.089,0 -0.239,-0.12 -0.299,-0.091 C -9,-9.959 -8.97,-9.719 -9,-9.66 c -0.06,0.181 0,0.511 0,0.781 0,1.35 0.03,2.58 0.121,3.839 0,0.42 0.12,1.17 -0.06,1.44 -0.061,0.121 -0.27,0.24 -0.391,0.33 -1.02,0.63 -2.129,0.99 -3.42,1.47 -0.27,0.09 -0.479,0.42 -0.449,0.69 0.03,0.27 0.27,0.18 0.51,0.24 0.21,0.06 0.45,0.03 0.6,0.06 0.39,0.09 0.96,0.06 1.319,0.09 0.871,0.09 2.82,0.06 3.661,0.45 0.239,0.12 0.329,0.72 0.449,1.02 0.09,0.18 0.181,0.33 0.241,0.51 0.21,0.54 0.449,1.05 0.659,1.62 0.18,0.51 0.36,1.08 0.571,1.65 C -5.1,4.8 -5.04,5.22 -4.74,5.25 -4.38,5.34 -4.29,4.59 -4.2,4.29 -3.78,3 -3.66,1.11 -2.91,0.09 -2.1,-0.12 -0.81,0.15 0,0"
               id="path3145"
               style="fill:#ffffff;fill-opacity:1;fill-rule:nonzero;stroke:none" />
          </g>
          <g
             transform="translate(210.395,419.9238)"
             id="g3147">
            <path
               d="m 0,0 c -0.87,0.78 -2.34,2.25 -2.67,3.6 -0.27,1.02 0.03,2.19 0.51,2.85 0.51,0.659 1.23,1.139 1.83,1.469 0.57,0.301 1.41,0.48 2.25,0.54 C 3.6,8.52 4.17,6.45 4.17,6.27 4.17,5.939 4.2,5.879 4.26,5.97 4.32,6.03 4.41,6.27 4.53,6.54 4.68,6.87 4.89,7.229 5.1,7.41 5.88,8.04 6.84,8.43 8.22,8.25 8.729,8.189 9.149,8.129 9.54,7.919 10.379,7.439 11.04,6.209 10.919,4.8 10.89,4.53 10.83,4.2 10.77,3.9 10.709,3.6 10.649,3.3 10.56,3.03 9.54,-0.3 6.15,-0.18 5.22,-3.48 5.07,-4.02 4.89,-4.35 4.71,-4.86 4.65,-4.98 4.53,-5.22 4.41,-5.22 4.08,-5.25 4.02,-4.77 3.93,-4.5 3.18,-2.46 2.4,-1.74 0.72,-0.57 0.45,-0.39 0.24,-0.24 0,0"
               id="path3149"
               style="fill:#ffffff;fill-opacity:1;fill-rule:nonzero;stroke:none" />
          </g>
          <g
             transform="translate(389.4258,370.9668)"
             id="g3151">
            <path
               d="m 0,0 c -0.87,0.779 -2.34,2.25 -2.67,3.6 -0.269,1.019 0.029,2.189 0.51,2.849 0.51,0.66 1.23,1.141 1.83,1.471 0.57,0.3 1.41,0.479 2.25,0.539 C 3.6,8.52 4.17,6.449 4.17,6.27 4.17,5.939 4.199,5.879 4.26,5.97 4.32,6.029 4.41,6.27 4.529,6.539 4.68,6.869 4.89,7.229 5.1,7.41 5.88,8.039 6.84,8.43 8.22,8.25 8.729,8.189 9.149,8.129 9.539,7.92 10.379,7.439 11.039,6.209 10.92,4.8 10.89,4.529 10.83,4.199 10.77,3.9 10.709,3.6 10.649,3.3 10.56,3.029 9.539,-0.301 6.15,-0.18 5.22,-3.48 5.07,-4.02 4.89,-4.35 4.71,-4.859 4.65,-4.98 4.529,-5.22 4.41,-5.22 4.08,-5.25 4.02,-4.77 3.93,-4.5 3.18,-2.46 2.4,-1.74 0.721,-0.57 0.45,-0.391 0.24,-0.24 0,0"
               id="path3153"
               style="fill:#ffffff;fill-opacity:1;fill-rule:nonzero;stroke:none" />
          </g>
          <g
             transform="translate(244.6831,336.5273)"
             id="g3155">
            <path
               d="M 0,0 C 0.09,-0.09 0.48,-0.119 0.63,-0.09 1.02,-0.059 1.62,0 2.07,-0.059 2.28,-0.09 2.52,-0.209 2.76,-0.27 3.27,-0.42 3.54,-0.659 3.87,-0.989 4.26,-1.35 4.65,-1.92 4.83,-2.459 c 0.12,-0.33 0.15,-0.721 0.24,-1.11 0.09,-0.39 0.12,-0.84 0.12,-1.201 -0.03,-0.66 0,-1.048 -0.12,-1.319 -0.09,-0.21 -0.3,-0.36 -0.75,-0.45 -2.07,-0.51 -5.04,-0.09 -7.41,-0.15 -0.45,-0.03 -0.93,0.06 -1.44,0.06 -0.87,0 -1.74,0.09 -2.76,0.029 -0.45,0 -0.93,0 -1.41,0.032 -0.449,0 -0.929,-0.032 -1.44,0 -0.48,0 -0.96,0.029 -1.409,0 -0.9,-0.032 -1.89,-0.091 -2.82,-0.061 -0.48,0 -0.96,0.061 -1.44,0.061 -0.51,0 -0.93,0.029 -1.38,0.149 -0.45,0.12 -0.87,0.149 -1.23,0.3 -0.36,0.15 -0.72,0.39 -0.96,0.66 -0.15,0.12 -0.48,0.57 -0.54,0.779 -0.09,0.211 -0.15,0.481 -0.18,0.721 -0.03,0.24 -0.12,0.51 -0.09,0.75 0,0.42 0.12,0.99 0.24,1.32 0.15,0.42 0.54,0.93 0.84,1.23 0.51,0.479 1.29,0.84 1.98,1.139 0.81,0.361 2.339,0.061 2.609,0.18 0.181,0.061 -0.059,1.291 0.631,2.01 0.36,0.361 0.78,0.781 1.32,1.02 1.65,0.691 3.119,-0.419 3.329,-0.389 0.45,0.06 -0.329,0.3 1.261,1.47 C -7.11,5.4 -5.52,5.73 -3.99,5.551 -0.36,5.101 -0.45,0.451 0,0"
               id="path3157"
               style="fill:#ffffff;fill-opacity:1;fill-rule:nonzero;stroke:none" />
          </g>
          <g
             transform="translate(372.1465,463.3916)"
             id="g3159">
            <path
               d="M 0,0 C 0.091,-0.09 0.48,-0.12 0.631,-0.09 1.021,-0.06 1.621,0 2.07,-0.06 2.28,-0.09 2.521,-0.21 2.76,-0.27 3.271,-0.42 3.541,-0.66 3.871,-0.99 4.26,-1.35 4.65,-1.92 4.83,-2.459 4.95,-2.79 4.98,-3.18 5.07,-3.57 5.16,-3.959 5.19,-4.41 5.19,-4.77 5.16,-5.43 5.19,-5.819 5.07,-6.089 4.98,-6.299 4.771,-6.45 4.32,-6.54 2.25,-7.049 -0.719,-6.629 -3.09,-6.689 c -0.449,-0.031 -0.93,0.06 -1.439,0.06 -0.87,0 -1.741,0.089 -2.76,0.029 -0.45,0 -0.93,0 -1.41,0.031 -0.449,0 -0.93,-0.031 -1.44,0 -0.48,0 -0.961,0.029 -1.41,0 -0.9,-0.031 -1.89,-0.091 -2.82,-0.06 -0.48,0 -0.959,0.06 -1.44,0.06 -0.509,0 -0.929,0.029 -1.379,0.15 -0.451,0.12 -0.871,0.149 -1.23,0.299 -0.361,0.15 -0.721,0.391 -0.961,0.661 -0.15,0.12 -0.479,0.569 -0.539,0.779 -0.091,0.21 -0.15,0.48 -0.181,0.721 -0.03,0.239 -0.12,0.509 -0.089,0.75 0,0.419 0.12,0.989 0.239,1.319 0.15,0.42 0.541,0.93 0.841,1.23 0.509,0.48 1.29,0.84 1.979,1.14 0.811,0.36 2.34,0.06 2.609,0.18 0.181,0.06 -0.058,1.29 0.631,2.01 0.36,0.36 0.78,0.78 1.321,1.02 1.649,0.69 3.119,-0.42 3.329,-0.39 0.45,0.06 -0.329,0.3 1.26,1.47 0.87,0.63 2.459,0.96 3.99,0.78 C -0.359,5.1 -0.449,0.45 0,0"
               id="path3161"
               style="fill:#ffffff;fill-opacity:1;fill-rule:nonzero;stroke:none" />
          </g>
          <g
             transform="translate(328.4688,313.8193)"
             id="g3163">
            <path
               d="M 0,0 C 0.03,-0.81 0.09,-1.8 0,-2.67 -0.029,-2.851 -0.029,-3.06 0,-3.181 0,-3.271 0.09,-3.36 0.18,-3.42 0.51,-3.63 0.721,-3.899 1.021,-4.11 1.801,-4.771 2.49,-5.521 3.301,-6.149 3.78,-6.51 4.11,-6.989 4.5,-7.409 4.59,-7.5 5.01,-8.1 5.04,-8.13 c 0.091,0 0.3,0.27 0.33,0.33 0.39,0.63 0.96,1.35 1.17,2.071 0.21,0.869 0.511,1.708 0.569,2.639 0.032,0.239 0.032,0.48 0,0.691 C 7.02,-1.92 6.87,-1.021 6.66,-0.511 6.33,0.33 5.609,1.8 4.95,2.34 4.86,2.46 4.74,2.579 4.65,2.67 4.141,3.12 3.45,3.569 2.85,3.93 2.73,3.989 2.58,4.05 2.43,4.14 1.98,4.35 0.84,4.77 0.211,4.62 -0.029,4.56 0.03,4.26 0.03,4.02 0.03,2.64 -0.06,1.47 0,0 m 0.03,-9.51 c 0,-0.18 0.06,-0.33 0.06,-0.479 0,-0.121 -0.029,-0.211 0,-0.271 0.09,-0.149 0.631,-0.12 0.84,-0.12 0.66,0.03 1.17,0.03 1.68,0.24 0.48,0.18 0.84,0.36 1.29,0.6 0.151,0.09 0.51,0.301 0.51,0.45 0.029,0.42 -0.42,0.78 -0.66,1.021 C 2.881,-7.11 1.95,-6.3 1.021,-5.37 0.87,-5.22 0.69,-5.13 0.51,-5.01 0.36,-4.92 0.211,-4.8 0.061,-4.649 l -0.031,0 C -0.119,-4.68 -0.119,-4.92 -0.119,-5.01 c 0,-1.44 -0.031,-3.03 0.149,-4.5 m -2.579,3.601 C -2.67,-6.03 -2.789,-6.18 -2.91,-6.271 -3.539,-6.899 -4.049,-7.5 -4.649,-8.22 c -0.031,-0.09 -0.3,-0.45 -0.3,-0.509 0,-0.18 0.359,-0.241 0.51,-0.331 0.12,-0.03 0.21,-0.15 0.359,-0.21 0.09,-0.059 0.24,-0.12 0.36,-0.15 0.151,-0.059 0.271,-0.12 0.361,-0.149 0.21,-0.061 0.42,-0.061 0.63,-0.151 0.18,-0.06 0.36,-0.15 0.569,-0.21 0.181,-0.059 0.42,-0.09 0.631,-0.149 0.15,-0.061 0.509,-0.181 0.63,-0.121 0.089,0.031 0.059,0.301 0.059,0.39 -0.029,0.63 0.03,1.411 -0.029,2.25 0,0.241 -0.061,0.481 -0.061,0.72 -0.06,0.63 -0.06,1.26 -0.029,1.92 0,0.21 0.09,0.569 -0.121,0.54 -0.149,-0.029 -0.27,-0.21 -0.359,-0.3 -0.481,-0.389 -0.721,-0.809 -1.11,-1.229 m -4.17,7.169 c -0.27,-0.33 -0.451,-0.691 -0.69,-1.05 -0.21,-0.391 -0.39,-0.811 -0.511,-1.29 -0.119,-0.36 -0.149,-0.78 -0.18,-1.23 -0.029,-0.961 0,-1.74 0.241,-2.55 0.06,-0.209 0.15,-0.42 0.24,-0.629 0.09,-0.181 0.15,-0.391 0.24,-0.601 0.15,-0.33 0.359,-0.69 0.6,-1.05 0.09,-0.15 0.21,-0.33 0.33,-0.509 0.119,-0.18 0.269,-0.42 0.449,-0.42 0.15,0 0.48,0.389 0.631,0.569 0.39,0.479 0.779,0.87 1.199,1.229 0.24,0.181 0.45,0.391 0.631,0.601 l 1.26,1.17 c 0.209,0.21 0.449,0.36 0.63,0.601 0.27,0.269 0.629,0.539 0.78,0.929 0.059,0.241 0,0.63 0,0.93 0.029,0.3 0,0.63 0,0.93 0,0.3 0,0.599 -0.03,0.9 -0.121,1.231 0,2.43 0,3.66 0,0.299 0.089,0.93 -0.121,1.049 C -1.109,4.56 -1.32,4.53 -1.379,4.53 -1.68,4.53 -1.92,4.499 -2.16,4.44 -4.379,3.54 -5.369,2.909 -6.719,1.26 M 1.59,5.31 C 3.18,4.979 4.17,4.2 5.311,3.45 L 5.67,3.09 C 6.391,2.43 6.99,1.53 7.38,0.45 7.71,-0.45 7.891,-1.47 7.891,-2.58 7.92,-3.899 7.71,-5.159 7.23,-6.18 7.141,-6.36 7.08,-6.63 6.99,-6.81 6.57,-7.649 6.03,-8.67 5.4,-9.329 4.68,-10.079 3.811,-10.47 2.881,-11.01 2.7,-11.1 2.461,-11.159 2.25,-11.249 c -0.57,-0.24 -1.68,-0.15 -2.459,-0.031 -0.27,0.031 -0.511,0.06 -0.781,0.06 -0.57,0 -0.989,0.21 -1.44,0.27 -0.24,0.06 -0.42,0.121 -0.66,0.211 -0.209,0.119 -0.449,0.149 -0.66,0.209 -0.449,0.091 -0.84,0.301 -1.229,0.51 -0.181,0.09 -0.331,0.21 -0.51,0.33 -0.181,0.09 -0.361,0.211 -0.54,0.33 -0.54,0.361 -0.96,0.69 -1.29,1.26 -0.241,0.361 -0.451,0.72 -0.66,1.079 -0.18,0.391 -0.361,0.782 -0.51,1.202 -0.54,1.439 -0.54,3.599 -0.12,5.039 0.21,0.78 0.63,1.47 1.019,2.009 0.631,0.93 0.99,1.531 1.83,2.221 0.811,0.57 1.74,0.93 2.7,1.35 0.241,0.12 0.48,0.179 0.781,0.24 0.24,0.06 0.509,0.15 0.809,0.209 0.601,0.091 1.23,0.121 1.89,0.15 0.33,0 0.81,-0.059 1.17,-0.089"
               id="path3165"
               style="fill:#ffffff;fill-opacity:1;fill-rule:nonzero;stroke:none" />
          </g>
        </g>
      </g>
    </g>
  </g>
</svg>
